<?xml version="1.0" standalone="no"?>
<!DOCTYPE svg PUBLIC "-//W3C//DTD SVG 1.1//EN" "http://www.w3.org/Graphics/SVG/1.1/DTD/svg11.dtd" >
<svg xmlns="http://www.w3.org/2000/svg">
<metadata>Generated by IcoMoon</metadata>
<defs>
<font id="nag-icon-font" horiz-adv-x="1024">
<font-face units-per-em="1024" ascent="960" descent="-64" />
<missing-glyph horiz-adv-x="1024" />
<glyph unicode="&#x20;" d="" horiz-adv-x="512" />
<glyph unicode="&#xe000;" d="M0-64v1024h170.667v-469.333l426.667 426.667v-426.667l426.667 426.667v-938.667l-426.667 426.667v-426.667l-426.667 426.667v-469.333 0h-170.667zM0-64" />
<glyph unicode="&#xe001;" d="M512.286 960v-465.455l465.714 465.455v-1024l-465.714 465.455v-465.455l-512.286 512 512.286 512zM512.286 960" horiz-adv-x="978" />
<glyph unicode="&#xe002;" d="M465.714-64v465.455l-465.714-465.455v1024l465.714-465.455v465.455l512.286-512-512.286-512zM465.714-64" horiz-adv-x="978" />
<glyph unicode="&#xe003;" d="M1024 960v-1024h-170.667v469.333l-426.667-426.667v426.667l-426.667-426.667v938.667l426.667-426.667v426.667l426.667-426.667v469.333 0h170.667zM1024 960" />
<glyph unicode="&#xe004;" d="M1024 190l-512 512-512-512h1024zM1024 190" />
<glyph unicode="&#xe005;" d="M0.004-64l512 512-512 512v-1024 0zM0.004-64" horiz-adv-x="512" />
<glyph unicode="&#xe006;" d="M0 704l512-512 512 512h-1024zM0 704" />
<glyph unicode="&#xe007;" d="M512.004 960l-512-512 512-512.004v1024.004 0zM512.004 960" horiz-adv-x="512" />
<glyph unicode="&#xe008;" d="M746 587.636l-373 372.364-373-372.364h746zM0 308.364l373-372.364 373 372.364h-746zM0 308.364" horiz-adv-x="746" />
<glyph unicode="&#xe009;" d="M1026 351.906v192.188l-147.061 24.462c-5.97 18.132-13.248 35.668-21.736 52.5l86.623 121.034-136.161 135.898-121.062-86.304c-16.943 8.554-34.605 15.888-52.871 21.902l-24.45 146.414h-192.563l-24.45-146.416c-18.266-6.014-35.928-13.348-52.869-21.902l-121.064 86.304-136.163-135.898 86.623-121.036c-8.487-16.83-15.765-34.366-21.734-52.498l-147.061-24.46v-192.188l147.405-24.52c5.972-17.968 13.236-35.348 21.684-52.030l-86.917-121.448 136.163-135.896 121.892 86.894c16.634-8.35 33.956-15.528 51.865-21.434l24.626-147.472h192.563l24.626 147.474c17.909 5.906 35.231 13.084 51.867 21.432l121.89-86.892 136.161 135.896-86.913 121.446c8.448 16.682 15.709 34.062 21.682 52.032l147.405 24.518zM513 320c-70.83 0-128.25 57.306-128.25 128 0 70.692 57.42 128 128.25 128 70.832 0 128.25-57.308 128.25-128 0-70.694-57.418-128-128.25-128v0 0 0zM513 320" horiz-adv-x="1026" />
<glyph unicode="&#xe00a;" d="M1011.928 44.24l-437.927 871.112c-16.775 29.766-38.888 44.648-61.001 44.648-22.113 0-44.226-14.882-61.003-44.648l-437.927-871.112c-33.551-59.532-5.010-108.24 63.428-108.24h871.005c68.435 0 96.981 48.708 63.426 108.24 0 0 33.555-59.532 0 0v0 0zM512.999 64c-35.415 0-64.125 28.654-64.125 64 0 35.348 28.71 64 64.125 64 35.417 0 64.125-28.652 64.125-64 0-35.346-28.708-64-64.125-64v0 0 0zM557.085 256h-88.172l-20.039 256c0 35.346 28.71 64 64.125 64s64.125-28.654 64.125-64l-20.039-256zM557.085 256" horiz-adv-x="1026" />
<glyph unicode="&#xe00b;" d="M512 960c-282.77 0-512-229.23-512-512s229.23-512 512-512c282.77 0 512 229.23 512 512 0 282.77-229.23 512-512 512v0 0 0zM416 128l-212 276 94 98 118-150 370 302 46-46-416-480zM416 128" />
<glyph unicode="&#xe00c;" d="M512 960c-282.77 0-512-229.23-512-512s229.23-512 512-512c282.77 0 512 229.23 512 512 0 282.77-229.23 512-512 512v0 0 0zM576 128h-128v128h128v-128 0 0 0zM576 384h-128v384h128v-384 0 0 0zM576 384" />
<glyph unicode="&#xe00d;" d="M512 960c-282.768 0-512-229.23-512-512s229.232-512 512-512c282.77 0 512 229.23 512 512 0 282.77-229.23 512-512 512v0 0 0zM819.721 243.721l-103.442-103.442-204.279 204.281-204.281-204.279-103.44 103.44 204.281 204.279-204.279 204.281 103.438 103.438 204.281-204.279 204.279 204.281 103.442-103.44-204.281-204.281 204.281-204.279zM819.721 243.721" />
<glyph unicode="&#xe00e;" d="M1016.647 137.338c-0.004 0.004-0.008 0.008-0.012 0.010l-311.251 310.65 311.251 310.65c0.004 0.004 0.008 0.006 0.012 0.010 3.351 3.346 5.773 7.254 7.326 11.416 4.254 11.376 1.828 24.682-7.338 33.83l-147.033 146.746c-9.166 9.146-22.494 11.566-33.894 7.32-4.168-1.55-8.086-3.968-11.44-7.31 0-0.004-0.004-0.006-0.008-0.010l-311.255-310.652-311.265 310.66c-3.353 3.342-7.268 5.76-11.436 7.31-11.402 4.248-24.73 1.826-33.896-7.32l-147.035-146.748c-9.166-9.148-11.591-22.452-7.336-33.828 1.555-4.16 3.978-8.072 7.326-11.416 0.004-0.002 0.006-0.006 0.010-0.010l311.257-310.648-311.257-310.652c-0.002-0.004-0.006-0.006-0.008-0.010-3.349-3.346-5.771-7.254-7.328-11.414-4.256-11.376-1.83-24.682 7.336-33.83l147.035-146.746c9.168-9.148 22.496-11.568 33.896-7.322 4.168 1.552 8.086 3.97 11.438 7.312 0.002 0.004 0.006 0.006 0.010 0.010l311.255 310.65 311.255-310.65c0.004-0.002 0.008-0.006 0.012-0.008 3.355-3.344 7.268-5.762 11.436-7.314 11.4-4.246 24.732-1.826 33.894 7.322l147.033 146.748c9.166 9.148 11.593 22.454 7.338 33.83-1.555 4.16-3.978 8.068-7.328 11.414 0 0 3.351-3.346 0 0v0 0zM1016.647 137.338" horiz-adv-x="1026" />
<glyph unicode="&#xe00f;" d="M35.3 512v-576h961.212v576h-961.212zM932.431 320h-833.051v64h833.051v-64 0 0 0zM0.512 829.714l34.788-253.632 952.319 130.288-34.786 253.63-952.321-130.286zM340.679 682.458l-179.769-24.594 109.582 144.188 179.769 24.594-109.582-144.188zM711.687 733.216l-179.769-24.594 109.582 144.188 179.769 24.594-109.582-144.188zM711.687 733.216" horiz-adv-x="998" />
<glyph unicode="&#xe010;" d="M512 960c-282.77 0-512-229.23-512-512s229.226-512 512-512c282.77 0 512 229.23 512 512 0 282.77-229.23 512-512 512v0 0 0zM576 128h-128v128h128v-128 0 0 0zM768 512c0-70.58-57.42-128-128-128h-63.884c-0.040-0.034-0.082-0.076-0.116-0.116v-63.884h-128v64c0 70.58 57.42 128 128 128h63.884c0.040 0.034 0.082 0.076 0.116 0.114v127.77c-0.034 0.040-0.074 0.082-0.116 0.116h-319.884v128h320c70.58 0 128-57.42 128-128v-128 0 0 0zM768 512" />
<glyph unicode="&#xe011;" d="M0 960l854-512-854-512v1024 0zM0 960" horiz-adv-x="854" />
<glyph unicode="&#xe012;" d="M1015.67-20.452c-14.020 0-28.036 5.344-38.733 16.032-21.39 21.378-21.39 56.036 0 77.414 100.008 99.949 155.087 232.828 155.087 374.172 0 141.341-55.079 274.223-155.087 374.17-21.39 21.378-21.39 56.038 0 77.414 21.39 21.376 56.074 21.376 77.464 0 120.7-120.625 187.174-281 187.174-451.584 0-170.586-66.474-330.959-187.174-451.584-10.695-10.69-24.713-16.034-38.731-16.034v0 0 0zM821.093 82.767c-14.020 0-28.036 5.344-38.733 16.032-21.39 21.376-21.39 56.036 0 77.414 149.498 149.402 149.498 392.499 0 541.901-21.39 21.378-21.39 56.038 0 77.414 21.39 21.374 56.074 21.376 77.464 0 93.111-93.049 144.39-216.767 144.39-348.362 0-131.593-51.279-255.313-144.39-348.364-10.695-10.69-24.713-16.034-38.731-16.034v0 0 0zM626.515 185.987c-14.020 0-28.036 5.344-38.733 16.032-21.392 21.378-21.392 56.036 0 77.414 92.547 92.488 92.547 242.976 0 335.462-21.392 21.378-21.392 56.038 0 77.414 21.392 21.376 56.072 21.376 77.464 0 135.261-135.174 135.261-355.118 0-490.292-10.695-10.686-24.713-16.030-38.731-16.030v0 0 0zM488.6 958.168c-8.677 0-19.247-5.456-30.619-16.821l-275.396-275.22h-182.584v-437.922h182.584l275.396-275.218c11.373-11.363 21.944-16.823 30.622-16.823 13.671 0 22.636 13.544 22.636 38.868v944.268c-0.002 25.322-8.972 38.868-22.638 38.868v0 0 0zM365.168 200.568l-137.207 137.117h-81.894v218.961h81.894l137.207 137.12v-493.198 0 0 0zM365.168 200.568" horiz-adv-x="1242" />
<glyph unicode="&#xe013;" d="M820.95 82.767c-14.018 0-28.031 5.344-38.726 16.032-21.386 21.376-21.386 56.036 0 77.414 149.472 149.402 149.472 392.499 0 541.901-21.386 21.378-21.386 56.038 0 77.414 21.386 21.374 56.064 21.376 77.45 0 93.095-93.049 144.365-216.767 144.365-348.362 0-131.593-51.27-255.313-144.365-348.364-10.693-10.69-24.708-16.034-38.724-16.034v0 0 0zM626.406 185.987c-14.018 0-28.031 5.344-38.726 16.032-21.388 21.378-21.388 56.036 0 77.414 92.531 92.488 92.531 242.976 0 335.462-21.388 21.378-21.388 56.038 0 77.414 21.388 21.376 56.062 21.376 77.45 0 135.237-135.174 135.237-355.118 0-490.292-10.693-10.686-24.708-16.030-38.724-16.030v0 0 0zM488.515 958.168c-8.676 0-19.243-5.456-30.614-16.821l-275.349-275.22h-182.553v-437.922h182.553l275.349-275.218c11.371-11.363 21.941-16.823 30.616-16.823 13.669 0 22.632 13.544 22.632 38.868v944.268c-0.002 25.322-8.97 38.868-22.634 38.868v0 0 0zM365.105 200.568l-137.184 137.117h-81.879v218.961h81.879l137.184 137.12v-493.198 0 0 0zM365.105 200.568" horiz-adv-x="1004" />
<glyph unicode="&#xe014;" d="M626.361 185.987c-14.017 0-28.029 5.344-38.723 16.032-21.387 21.378-21.387 56.036 0 77.414 92.525 92.488 92.525 242.976 0 335.462-21.387 21.378-21.387 56.038 0 77.414 21.387 21.376 56.058 21.376 77.445 0 135.227-135.174 135.227-355.118 0-490.292-10.692-10.686-24.707-16.030-38.721-16.030v0 0 0zM488.48 958.168c-8.675 0-19.242-5.456-30.612-16.821l-275.329-275.22h-182.539v-437.922h182.539l275.329-275.218c11.37-11.363 21.939-16.823 30.614-16.823 13.668 0 22.63 13.544 22.63 38.868v944.268c-0.002 25.322-8.97 38.868-22.633 38.868v0 0 0zM365.079 200.568l-137.174 137.117h-81.873v218.961h81.873l137.174 137.12v-493.198 0 0 0zM365.079 200.568" horiz-adv-x="767" />
<glyph unicode="&#xe015;" d="M488.374 958.168c-8.673 0-19.238-5.456-30.605-16.821l-275.269-275.22h-182.5v-437.922h182.5l275.269-275.218c11.367-11.363 21.934-16.823 30.608-16.823 13.665 0 22.625 13.544 22.625 38.868v944.268c-0.002 25.322-8.968 38.868-22.628 38.868v0 0 0zM365 200.568l-137.144 137.117h-81.856v218.961h81.856l137.144 137.12v-493.198 0 0 0zM365 200.568" horiz-adv-x="511" />
<glyph unicode="&#xe016;" d="M874.022 810.020c-92.652 92.656-220.636 149.98-362.022 149.98-219.488 0-406.69-138.128-479.498-332.188l119.876-44.954c54.604 145.546 195.006 249.142 359.622 249.142 106.040 0 202.020-43 271.506-112.494l-143.506-143.506h384v384l-149.978-149.98zM512 64c-106.040 0-202.026 42.992-271.512 112.488l143.512 143.512h-384v-384l149.994 149.994c92.646-92.662 220.618-149.994 362.006-149.994 219.49 0 406.692 138.128 479.5 332.188l-119.876 44.954c-54.604-145.546-195.006-249.142-359.624-249.142v0 0 0zM512 64" />
<glyph unicode="&#xe017;" d="M1024 960v-384l-138.26 138.26-212-212-107.48 107.48 212 212-138.26 138.26h384zM245.74 821.74l212-212-107.48-107.48-212 212-138.26-138.26v384h384l-138.26-138.26zM885.74 181.74l138.26 138.26v-384h-384l138.26 138.26-212 212 107.48 107.48 212-212zM457.74 286.26l-212-212 138.26-138.26h-384v384l138.26-138.26 212 212 107.48-107.48zM457.74 286.26" />
<glyph unicode="&#xe018;" d="M64.167 384.571h383.446v-383.446l-138.061 138.061-201.709-201.709-107.325 107.325 201.709 201.709-138.061 138.061zM820.814 246.511l201.709-201.709-107.325-107.325-201.709 201.709-138.061-138.061v383.446h383.446l-138.061-138.061zM958.875 512.387h-383.446v383.446l138.061-138.061 201.709 201.709 107.325-107.325-201.709-201.709 138.061-138.061zM309.553 757.772l138.061 138.061v-383.446h-383.446l138.061 138.061-201.709 201.709 107.325 107.325 201.709-201.709zM309.553 757.772" />
<glyph unicode="&#xe019;" d="M0 960h426.667v-1024h-426.667v1024 0zM597.333 960h426.667v-1024h-426.667v1024 0zM597.333 960" />
</font>
</defs>
</svg>
